<svg width="42" height="42" viewBox="0 0 42 42" fill="none" xmlns="http://www.w3.org/2000/svg">
<rect width="42" height="42" fill="white"/>
<path d="M21 0C9.45 0 0 9.45 0 21C0 32.55 9.45 42 21 42C32.55 42 42 32.55 42 21C42 9.45 32.55 0 21 0ZM21 6.3C24.57 6.3 27.3 9.03 27.3 12.6C27.3 16.17 24.57 18.9 21 18.9C17.43 18.9 14.7 16.17 14.7 12.6C14.7 9.03 17.43 6.3 21 6.3ZM21 36.12C15.75 36.12 11.13 33.3901 8.4 29.4C8.4 25.2 16.8 22.89 21 22.89C25.2 22.89 33.6 25.2 33.6 29.4C30.87 33.39 26.25 36.12 21 36.12Z" fill="#E978A0"/>
</svg>
