<svg width="300" height="80" viewBox="0 0 300 80" fill="none" xmlns="http://www.w3.org/2000/svg">
<path d="M136 30L138.351 36.7639L145.511 36.9098L139.804 41.2361L141.878 48.0902L136 44L130.122 48.0902L132.196 41.2361L126.489 36.9098L133.649 36.7639L136 30Z" fill="#E978A0"/>
<path d="M216.4 30L218.751 36.7639L225.911 36.9098L220.204 41.2361L222.278 48.0902L216.4 44L210.522 48.0902L212.596 41.2361L206.889 36.9098L214.049 36.7639L216.4 30Z" fill="#E978A0"/>
<path d="M122.651 39.9746C122.651 36.2266 123.875 33.0908 126.325 30.5674C128.774 28.0439 131.965 26.7822 135.899 26.7822C139.87 26.7822 143.104 28.0439 145.603 30.5674C148.102 33.0908 149.351 36.2513 149.351 40.0488C149.351 43.9206 148.077 47.1182 145.529 49.6416C142.993 52.1527 139.764 53.4082 135.843 53.4082C133.345 53.4082 131.044 52.8145 128.941 51.627C126.85 50.4271 125.279 48.7633 124.228 46.6357C123.177 44.4958 122.651 42.2754 122.651 39.9746ZM126.9 39.9932C126.9 42.8258 127.729 45.2008 129.386 47.1182C131.044 49.0355 133.221 49.9941 135.917 49.9941C138.589 49.9941 140.785 49.0169 142.504 47.0625C144.224 45.0957 145.083 42.7516 145.083 40.0303C145.083 37.2842 144.205 34.9648 142.449 33.0723C140.705 31.1673 138.509 30.2148 135.862 30.2148C133.227 30.2148 131.075 31.1488 129.405 33.0166C127.735 34.8844 126.9 37.21 126.9 39.9932ZM174.919 42.498L178.278 44.3721C177.523 47.2419 175.996 49.4684 173.695 51.0518C171.406 52.6227 168.772 53.4082 165.79 53.4082C161.882 53.4082 158.746 52.1403 156.383 49.6045C154.021 47.0687 152.839 43.9329 152.839 40.1973C152.839 36.1029 154.027 32.8434 156.402 30.4189C158.777 27.9945 161.875 26.7822 165.698 26.7822C169.075 26.7822 171.914 27.7038 174.214 29.5469V27.1904H177.554V35.4844H174.214C173.472 33.8021 172.328 32.5033 170.782 31.5879C169.235 30.6602 167.609 30.1963 165.902 30.1963C163.329 30.1963 161.214 31.124 159.556 32.9795C157.911 34.835 157.088 37.179 157.088 40.0117C157.088 42.9186 157.973 45.2936 159.742 47.1367C161.511 48.9798 163.607 49.9014 166.032 49.9014C168.023 49.9014 169.835 49.2643 171.468 47.9902C173.101 46.7038 174.251 44.873 174.919 42.498ZM189.058 49.7715V30.4189H183.733V37.0059H180.541V27.1904H201.453V37.0059H198.261V30.4189H192.955V49.7715H196.313V53H185.755V49.7715H189.058ZM203.178 39.9746C203.178 36.2266 204.403 33.0908 206.852 30.5674C209.301 28.0439 212.493 26.7822 216.426 26.7822C220.397 26.7822 223.632 28.0439 226.13 30.5674C228.629 33.0908 229.878 36.2513 229.878 40.0488C229.878 43.9206 228.604 47.1182 226.056 49.6416C223.52 52.1527 220.292 53.4082 216.371 53.4082C213.872 53.4082 211.571 52.8145 209.468 51.627C207.378 50.4271 205.807 48.7633 204.755 46.6357C203.704 44.4958 203.178 42.2754 203.178 39.9746ZM207.427 39.9932C207.427 42.8258 208.256 45.2008 209.914 47.1182C211.571 49.0355 213.748 49.9941 216.445 49.9941C219.117 49.9941 221.312 49.0169 223.032 47.0625C224.751 45.0957 225.611 42.7516 225.611 40.0303C225.611 37.2842 224.733 34.9648 222.976 33.0723C221.232 31.1673 219.036 30.2148 216.389 30.2148C213.754 30.2148 211.602 31.1488 209.932 33.0166C208.262 34.8844 207.427 37.21 207.427 39.9932ZM235.76 49.7715V30.4189H232.513V27.1904H241.735C244.444 27.1904 246.472 27.3822 247.821 27.7656C249.169 28.1491 250.295 29.0212 251.198 30.3818C252.113 31.7301 252.571 33.3258 252.571 35.1689C252.571 36.641 252.268 37.9645 251.662 39.1396C251.068 40.3024 250.326 41.1621 249.435 41.7188C248.557 42.2754 247.561 42.6527 246.448 42.8506C245.347 43.0361 243.677 43.1289 241.438 43.1289H239.657V49.7715H242.997V53H232.513V49.7715H235.76ZM239.657 40.0117H241.883C244.419 40.0117 246.176 39.653 247.153 38.9355C248.13 38.2057 248.619 36.9255 248.619 35.0947C248.619 33.932 248.359 32.9671 247.839 32.2002C247.32 31.4333 246.677 30.9447 245.91 30.7344C245.143 30.5241 243.862 30.4189 242.069 30.4189H239.657V40.0117ZM261.124 30.4189V43.333C261.124 45.3369 261.223 46.7223 261.421 47.4893C261.632 48.2562 262.145 48.9118 262.961 49.4561C263.778 49.988 264.829 50.2539 266.116 50.2539C267.65 50.2539 268.825 50.0251 269.641 49.5674C270.457 49.0973 270.996 48.4727 271.255 47.6934C271.527 46.9017 271.664 45.5101 271.664 43.5186V30.4189H268.676V27.1904H278.77V30.4189H275.541V43.9082C275.541 45.7266 275.461 47.0501 275.3 47.8789C275.152 48.6953 274.737 49.555 274.057 50.458C273.377 51.3486 272.418 52.0661 271.181 52.6104C269.944 53.1423 268.441 53.4082 266.672 53.4082C264.718 53.4082 263.091 53.1608 261.792 52.666C260.494 52.1589 259.516 51.4847 258.861 50.6436C258.205 49.8024 257.766 48.9056 257.543 47.9531C257.333 47.0007 257.228 45.5225 257.228 43.5186V30.4189H254.037V27.1904H264.186V30.4189H261.124ZM280.57 53V43.6299H283.798V45.9121C285.345 48.7201 287.367 50.124 289.866 50.124C291.14 50.124 292.216 49.7344 293.094 48.9551C293.972 48.1758 294.412 47.1553 294.412 45.8936C294.412 44.6689 294.053 43.7907 293.335 43.2588C292.618 42.7145 291.263 42.1764 289.272 41.6445C286.959 41.026 285.246 40.4447 284.132 39.9004C283.019 39.3438 282.128 38.5583 281.46 37.5439C280.805 36.5173 280.477 35.305 280.477 33.9072C280.477 31.7425 281.194 30.0169 282.629 28.7305C284.077 27.4316 285.889 26.7822 288.066 26.7822C290.132 26.7822 292.049 27.4502 293.818 28.7861V27.0605H296.972V34.8906H293.818V33.0908C292.494 31.0993 290.67 30.1035 288.344 30.1035C286.934 30.1035 285.852 30.4313 285.097 31.0869C284.343 31.7301 283.965 32.5033 283.965 33.4062C283.965 34.099 284.157 34.7113 284.54 35.2432C284.924 35.7627 285.413 36.1462 286.006 36.3936C286.6 36.641 287.769 36.9873 289.513 37.4326C291.789 38.0264 293.441 38.583 294.467 39.1025C295.494 39.6097 296.378 40.4632 297.121 41.6631C297.863 42.863 298.234 44.2422 298.234 45.8008C298.234 48.0026 297.455 49.821 295.896 51.2559C294.35 52.6908 292.432 53.4082 290.144 53.4082C287.794 53.4082 285.678 52.5609 283.798 50.8662V53H280.57Z" fill="black"/>
<path d="M79.9572 15.4203C77.7629 17.6102 71.0409 20.7677 68.8465 18.5776C66.6522 16.3878 69.816 9.67957 72.0103 7.4897C74.2049 5.29984 77.7627 5.29984 79.9572 7.4897C82.1519 9.67957 82.1518 13.2305 79.9572 15.4203Z" fill="#F3CE72"/>
<path opacity="0.1" d="M79.9572 15.4203C77.7629 17.6102 71.0409 20.7677 68.8465 18.5776C66.6522 16.3878 69.816 9.67957 72.0103 7.4897C74.2049 5.29984 77.7627 5.29984 79.9572 7.4897C82.1519 9.67957 82.1518 13.2305 79.9572 15.4203Z" fill="black"/>
<path d="M73.9858 29.2944C71.7915 27.1043 68.6275 20.3963 70.822 18.2065C73.0164 16.0166 79.7384 19.1739 81.9327 21.3638C84.1271 23.5536 84.1271 27.1043 81.9327 29.2944C79.7384 31.4843 76.1804 31.4843 73.9858 29.2944Z" fill="#F3CE72"/>
<path opacity="0.1" d="M73.9858 29.2944C71.7915 27.1043 68.6275 20.3963 70.822 18.2065C73.0164 16.0166 79.7384 19.1739 81.9327 21.3638C84.1271 23.5536 84.1271 27.1043 81.9327 29.2944C79.7384 31.4843 76.1804 31.4843 73.9858 29.2944Z" fill="black"/>
<path d="M18.9305 72.5661C21.1952 72.5661 23.0312 70.7339 23.0312 68.4738C23.0312 66.2137 21.1952 64.3815 18.9305 64.3815C16.6657 64.3815 14.8298 66.2137 14.8298 68.4738C14.8298 70.7339 16.6657 72.5661 18.9305 72.5661Z" fill="#F0BDD5"/>
<path d="M39.7212 77.9812C41.9859 77.9812 43.8218 76.149 43.8218 73.8889C43.8218 71.6288 41.9859 69.7966 39.7212 69.7966C37.4564 69.7966 35.6205 71.6288 35.6205 73.8889C35.6205 76.149 37.4564 77.9812 39.7212 77.9812Z" fill="#F0BDD5"/>
<path d="M6.28363 55.4438C8.54837 55.4438 10.3843 53.6116 10.3843 51.3515C10.3843 49.0914 8.54837 47.2593 6.28363 47.2593C4.01889 47.2593 2.18295 49.0914 2.18295 51.3515C2.18295 53.6116 4.01889 55.4438 6.28363 55.4438Z" fill="#F0BDD5"/>
<path d="M52.2787 77.9812C54.5435 77.9812 56.3794 76.149 56.3794 73.8889C56.3794 71.6288 54.5435 69.7966 52.2787 69.7966C50.014 69.7966 48.178 71.6288 48.178 73.8889C48.178 76.149 50.014 77.9812 52.2787 77.9812Z" fill="#F0BDD5"/>
<path d="M85.7169 55.4438C87.9817 55.4438 89.8176 53.6116 89.8176 51.3515C89.8176 49.0914 87.9817 47.2593 85.7169 47.2593C83.4522 47.2593 81.6163 49.0914 81.6163 51.3515C81.6163 53.6116 83.4522 55.4438 85.7169 55.4438Z" fill="#F0BDD5"/>
<path d="M11.7404 38.3757C15.2059 39.0143 18.7306 39.3231 22.2542 39.3424C26.5728 39.3663 31.0127 38.9239 35.2864 38.314L35.6437 38.264C40.1776 37.6297 44.3681 40.7833 45.0038 45.3079C45.639 49.8296 42.4835 54.0091 37.9543 54.6476C32.9401 55.3547 27.4055 54.9941 22.3634 54.7036C16.6179 54.3726 10.3843 53.6721 5.20674 51.0704C1.75079 49.3338 0.360002 45.1304 2.10011 41.6815C3.5705 38.7672 6.80597 37.3244 9.8587 37.9948C10.4837 38.1329 11.111 38.2597 11.7404 38.3757Z" fill="#E978A0"/>
<path opacity="0.1" d="M39.583 51.7079C34.5688 52.4149 29.0344 52.0543 23.9923 51.7638C18.2468 51.4328 12.0132 50.7323 6.83563 48.1306C3.81453 46.6126 2.37163 43.2091 3.21904 40.0726C2.78257 40.543 2.40325 41.0804 2.09994 41.6813C0.360011 45.1302 1.75062 49.3335 5.20657 51.0702C10.3841 53.672 16.6177 54.3724 22.3632 54.7034C27.4053 54.9939 32.9397 55.3545 37.9541 54.6475C41.235 54.1848 43.7936 51.8637 44.7142 48.9008C43.4477 50.3755 41.6607 51.415 39.583 51.7079Z" fill="black"/>
<path d="M13.9159 54.9634C16.1471 53.7822 18.3235 52.495 20.3444 50.9041C24.7678 47.4224 28.56 43.4078 32.5807 39.5013C35.7218 36.4494 40.8 36.2956 44.0477 39.2883C47.4113 42.3876 47.6201 47.6213 44.5144 50.978C42.2156 53.4623 39.3422 55.6003 36.6862 57.6878C33.2019 60.4262 29.5909 63.0992 25.7346 65.2966C22.9467 66.8918 20.0551 68.2025 16.9091 68.9027C13.1326 69.7434 9.38846 67.3697 8.54626 63.6009C7.83452 60.4164 9.4226 57.2548 12.2105 55.844C12.781 55.5555 13.3502 55.2629 13.9159 54.9634Z" fill="#E978A0"/>
<path opacity="0.1" d="M45.912 41.8174C45.2024 41.314 44.4024 40.9127 43.5241 40.6457C40.6744 39.7794 37.5074 40.538 35.3594 42.5976C32.8006 45.0511 32.2368 49.1748 31.0474 52.3708C29.2789 57.1233 27.1548 61.7602 24.4137 66.0246C24.8568 65.7895 25.297 65.5473 25.7344 65.2971C29.5909 63.0999 33.2021 60.427 36.686 57.6884C39.342 55.6009 42.2154 53.4627 44.5142 50.9784C46.8792 48.4223 47.3202 44.7791 45.912 41.8174Z" fill="black"/>
<path d="M27.72 66.6548C30.2647 61.4423 31.8815 55.8374 33.0159 50.1564C33.6836 46.8128 33.5868 42.652 35.7244 39.8255C37.5189 37.4528 40.5256 36.2038 43.4768 36.6092C48.0122 37.2324 51.1826 41.4066 50.5582 45.9328C50.5273 46.1568 50.4878 46.3775 50.4398 46.5947C50.4398 46.5947 50.4322 46.6266 50.4322 46.6268C49.2725 51.5088 47.9509 56.3671 46.2904 61.1052C44.4899 66.2434 42.3746 71.7263 38.6892 75.8412L38.1832 76.3914C35.567 79.2361 31.1351 79.4256 28.2845 76.8147C25.8762 74.6089 25.3669 71.1096 26.8447 68.3616C27.1484 67.7976 27.4398 67.2284 27.72 66.6548Z" fill="#E978A0"/>
<path d="M80.2595 38.3757C76.794 39.0143 73.2692 39.3231 69.7457 39.3424C65.4271 39.3663 60.9871 38.9239 56.7134 38.314L56.3562 38.264C51.8223 37.6297 47.6318 40.7833 46.996 45.3079C46.3608 49.8296 49.5164 54.0091 54.0456 54.6476C59.0598 55.3547 64.5944 54.9941 69.6365 54.7036C75.382 54.3725 81.6156 53.6721 86.7931 51.0704C90.2489 49.3338 91.6397 45.1304 89.8998 41.6815C88.4292 38.7672 85.1939 37.3243 82.1412 37.9948C81.5162 38.1329 80.8889 38.2597 80.2595 38.3757Z" fill="#E978A0"/>
<path opacity="0.1" d="M52.4167 51.7079C57.4309 52.4149 62.9655 52.0543 68.0076 51.7638C73.7531 51.4328 79.9867 50.7323 85.1642 48.1306C88.1854 46.6126 89.6282 43.2091 88.7808 40.0726C89.2173 40.543 89.5966 41.0804 89.8999 41.6813C91.64 45.1302 90.2493 49.3335 86.7933 51.0702C81.6158 53.672 75.3822 54.3724 69.6366 54.7034C64.5946 54.9939 59.0602 55.3545 54.0458 54.6475C50.7648 54.1848 48.2063 51.8637 47.2857 48.9008C48.552 50.3755 50.3392 51.415 52.4167 51.7079Z" fill="black"/>
<path d="M73.0694 72.5661C75.3341 72.5661 77.1701 70.7339 77.1701 68.4738C77.1701 66.2137 75.3341 64.3815 73.0694 64.3815C70.8047 64.3815 68.9687 66.2137 68.9687 68.4738C68.9687 70.7339 70.8047 72.5661 73.0694 72.5661Z" fill="#F0BDD5"/>
<path d="M78.084 54.9634C75.8528 53.7822 73.6764 52.495 71.6554 50.9041C67.2321 47.4224 63.4399 43.4078 59.419 39.5013C56.2779 36.4494 51.1997 36.2956 47.952 39.2883C44.5884 42.3876 44.3796 47.6213 47.4854 50.978C49.7841 53.4623 52.6575 55.6003 55.3135 57.6878C58.7978 60.4262 62.4089 63.0992 66.2652 65.2966C69.053 66.8918 71.9446 68.2025 75.0906 68.9027C78.8671 69.7434 82.6112 67.3697 83.4534 63.6009C84.1652 60.4164 82.5771 57.2548 79.7892 55.844C79.2189 55.5555 78.6497 55.2629 78.084 54.9634Z" fill="#E978A0"/>
<path opacity="0.1" d="M46.0881 41.8174C46.7977 41.314 47.5977 40.9127 48.476 40.6457C51.3256 39.7794 54.4927 40.538 56.6407 42.5976C59.1994 45.0511 59.7633 49.1748 60.9526 52.3708C62.721 57.1233 64.8452 61.7602 67.5864 66.0246C67.1433 65.7895 66.703 65.5473 66.2657 65.2971C62.4092 63.0999 58.798 60.427 55.314 57.6884C52.658 55.6009 49.7845 53.4627 47.4859 50.9784C45.1205 48.4223 44.6797 44.7791 46.0881 41.8174Z" fill="black"/>
<path d="M64.2801 66.6548C61.7353 61.4423 60.1185 55.8374 58.9841 50.1564C58.3164 46.8127 58.4133 42.652 56.2757 39.8255C54.4811 37.4527 51.4744 36.2038 48.5232 36.6092C43.9877 37.2324 40.8174 41.4066 41.4418 45.9328C41.4728 46.1568 41.5125 46.3775 41.5603 46.5947C41.5603 46.5947 41.5678 46.6266 41.568 46.6268C42.7277 51.5088 44.0493 56.3671 45.7098 61.1051C47.5103 66.2434 49.6256 71.7263 53.311 75.8412L53.817 76.3913C56.4333 79.2361 60.8651 79.4256 63.7157 76.8147C66.1241 74.6089 66.6333 71.1096 65.1555 68.3615C64.8515 67.7976 64.56 67.2284 64.2801 66.6548Z" fill="#E978A0"/>
<path d="M45.9991 62.2302C62.847 62.2302 76.5049 48.6003 76.5049 31.7869C76.5049 14.9736 62.847 1.34364 45.9991 1.34364C29.1513 1.34364 15.4934 14.9736 15.4934 31.7869C15.4934 48.6003 29.1513 62.2302 45.9991 62.2302Z" fill="#E978A0"/>
<path opacity="0.1" d="M75.3736 23.5583C75.3745 23.5583 75.3754 23.5581 75.3763 23.5581C74.777 21.4233 73.9497 19.3837 72.9235 17.4662H23.5839C28.3844 8.49749 37.5518 2.20763 48.2535 1.42759C47.5092 1.37343 46.758 1.34474 45.9999 1.34474C29.1523 1.34474 15.4947 14.9746 15.4947 31.7875C15.4947 39.7278 18.5409 46.9584 23.5309 52.3782C24.0482 52.94 24.8701 53.1033 25.5596 52.7743C26.5502 52.3016 26.8526 51.0422 26.1888 50.1691C22.3059 45.0617 20.0018 38.6931 20.0018 31.7875C20.0018 28.9356 20.3966 26.176 21.1315 23.5583H75.3736Z" fill="black"/>
<path d="M50.5072 35.1937C50.5072 37.643 48.474 39.6186 45.9999 39.5307C43.6434 39.447 41.8097 37.4429 41.8097 35.0897V32.0373C41.8097 31.3836 42.3407 30.8539 42.9955 30.8539H49.3214C49.9764 30.8539 50.5072 31.3836 50.5072 32.0373V35.1937Z" fill="#485358"/>
<path d="M75.3736 21.3598H16.8907C15.205 21.3598 13.8385 19.996 13.8385 18.3138C13.8385 16.6316 15.205 15.2679 16.8907 15.2679H75.3737C77.0594 15.2679 78.4259 16.6316 78.4259 18.3138C78.4259 19.996 77.0592 21.3598 75.3736 21.3598Z" fill="#F3CE72"/>
<path opacity="0.1" d="M18.0622 18.3138C18.0622 16.6316 19.4288 15.2679 21.1144 15.2679H16.8907C15.205 15.2679 13.8385 16.6316 13.8385 18.3138C13.8385 19.996 15.205 21.3598 16.8907 21.3598H21.1144C19.4286 21.3598 18.0622 19.9962 18.0622 18.3138Z" fill="black"/>
<path d="M30.8945 29.3105C30.1502 29.3105 29.5468 29.9127 29.5468 30.6554V33.2265C29.5468 33.9693 30.1502 34.5714 30.8945 34.5714C31.6388 34.5714 32.2422 33.9693 32.2422 33.2265V30.6554C32.2422 29.9127 31.6388 29.3105 30.8945 29.3105ZM91.1035 41.0766C89.385 37.6701 85.5811 35.8625 81.8506 36.6817C81.2443 36.8154 80.6267 36.9403 80.0149 37.053C79.1492 37.2125 78.2543 37.3511 77.3435 37.4723C77.6527 35.7634 77.8216 34.0259 77.8482 32.2756C77.8825 32.2761 77.917 32.279 77.9514 32.279C79.7777 32.279 81.5651 31.5633 82.8854 30.2453C84.2015 28.9321 84.926 27.1861 84.926 25.3292C84.926 23.4722 84.2013 21.726 82.8856 20.413C82.1568 19.6858 81.0488 18.9026 79.7705 18.2019C79.7635 17.9281 79.7323 17.6606 79.6771 17.4013C80.1597 17.0518 80.5777 16.7034 80.9099 16.3716C82.226 15.0585 82.9505 13.3124 82.9505 11.4554C82.9505 9.59832 82.2258 7.85228 80.9101 6.53929C79.5943 5.22594 77.8446 4.50292 75.9838 4.50292C74.1231 4.50292 72.3733 5.22612 71.0574 6.53929C70.3284 7.26679 69.5434 8.37733 68.8489 9.63688C62.9091 3.52042 54.7298 0 45.9999 0C40.1142 0 34.3641 1.61514 29.3711 4.67095C28.7366 5.05918 28.5377 5.88746 28.9267 6.52028C29.3158 7.15328 30.1454 7.35197 30.7799 6.96374C35.3486 4.16741 40.6115 2.68945 45.9995 2.68945C54.6028 2.68945 62.6223 6.42452 68.128 12.8397C68.1513 12.8695 68.1767 12.898 68.2027 12.9258C68.4798 13.2513 68.7501 13.5841 69.014 13.923H22.9866C23.9273 12.718 24.9614 11.5852 26.0806 10.5396C26.624 10.0319 26.6522 9.18086 26.1435 8.63878C25.6348 8.09651 24.782 8.06836 24.2388 8.57601C22.5176 10.184 20.9793 11.9813 19.6548 13.923H16.8907C14.4647 13.923 12.4908 15.8927 12.4908 18.3138C12.4908 20.2625 13.77 21.918 15.534 22.4902C14.6144 25.4924 14.1473 28.6121 14.1473 31.7875C14.1473 33.711 14.3191 35.6115 14.6551 37.4721C13.7445 37.3509 12.8502 37.2125 11.9852 37.053C11.3724 36.9403 10.755 36.8153 10.1486 36.6815C6.42037 35.8625 2.61547 37.6699 0.896745 41.0766C-0.106816 43.0653 -0.274107 45.3253 0.425421 47.4397C0.636735 48.0786 0.920823 48.6802 1.26762 49.2375C0.985331 49.9033 0.835471 50.6197 0.835471 51.3514C0.835471 54.3494 3.2796 56.7884 6.28363 56.7884C8.08052 56.7884 9.72377 55.9163 10.7306 54.4945C10.9918 54.5603 11.2556 54.6243 11.5237 54.686C8.16946 56.4274 6.40546 60.1999 7.23095 63.8939C7.97522 67.2232 10.6305 69.6417 13.7876 70.2598C14.5376 72.3984 16.5918 73.9103 18.9316 73.9103C21.9358 73.9103 24.3797 71.4713 24.3797 68.4733C24.3797 68.1763 24.3549 67.8831 24.3078 67.5944C24.949 67.27 25.6025 66.9189 26.272 66.5382C26.0706 66.9395 25.8659 67.3383 25.6577 67.7255C23.8529 71.0818 24.5583 75.227 27.3735 77.8055C28.9749 79.2725 30.9993 79.9964 33.0184 79.9962C34.5289 79.996 36.0354 79.5886 37.3602 78.7856C38.0923 79.1385 38.8928 79.3254 39.721 79.3254C42.7252 79.3254 45.1693 76.8863 45.1693 73.8882C45.1693 72.6041 44.7223 71.3901 43.9191 70.4246C44.6939 68.9124 45.3767 67.3502 45.9995 65.777C46.6223 67.3495 47.3053 68.9115 48.0805 70.4239C47.2771 71.3894 46.8298 72.6036 46.8298 73.888C46.8298 76.8861 49.274 79.325 52.278 79.325C53.1051 79.325 53.904 79.1387 54.635 78.7871C55.8259 79.5124 57.1869 79.9308 58.6196 79.9921C58.7421 79.9973 58.8639 80 58.9858 80C61.0815 80 63.0721 79.228 64.6257 77.8051C67.4408 75.2267 68.1465 71.0815 66.3415 67.7251C66.1329 67.3369 65.9284 66.9385 65.7271 66.5379C66.397 66.9186 67.0506 67.2697 67.6913 67.5941C67.6442 67.8828 67.6195 68.1761 67.6195 68.4731C67.6195 71.4711 70.0636 73.9103 73.0676 73.9103C75.4052 73.9103 77.4579 72.4013 78.2094 70.2654C79.2214 70.0689 80.1978 69.6839 81.0941 69.1156C82.9774 67.9215 84.2823 66.0671 84.768 63.8939C85.5937 60.1999 83.8297 56.4274 80.4751 54.686C80.7432 54.6243 81.0072 54.5603 81.2684 54.4945C82.275 55.9165 83.9181 56.7884 85.7154 56.7884C88.7197 56.7884 91.1637 54.3492 91.1637 51.3512C91.1637 50.6194 91.0138 49.9028 90.7315 49.2372C91.0783 48.6798 91.3624 48.078 91.5739 47.4395C92.2744 45.3253 92.1069 43.0655 91.1035 41.0766ZM80.98 22.3145C81.7868 23.1198 82.2312 24.1902 82.2312 25.3291C82.2312 26.4677 81.7868 27.5381 80.9798 28.3434C80.1274 29.1941 78.9583 29.6333 77.7765 29.5842C77.6127 27.1938 77.1809 24.8443 76.4878 22.5618C77.5041 22.296 78.3772 21.6754 78.9677 20.8419C79.8045 21.3374 80.527 21.8624 80.98 22.3145ZM72.963 8.44081C73.77 7.63566 74.8428 7.1922 75.9836 7.1922C77.1248 7.1922 78.1972 7.63566 79.0042 8.44081C79.811 9.24614 80.2553 10.3165 80.2553 11.4552C80.2553 12.5941 79.811 13.6644 79.004 14.4697C78.8212 14.6521 78.5885 14.8508 78.3197 15.0563C77.5392 14.3525 76.5056 13.9232 75.3734 13.9232H72.3447C71.8443 13.1889 71.3164 12.48 70.7635 11.7968C71.4321 10.4132 72.2572 9.14518 72.963 8.44081ZM68.5632 16.6126H71.6242C71.6251 16.6126 71.626 16.6128 71.627 16.6128C71.6279 16.6128 71.6287 16.6126 71.6296 16.6126H75.3737C76.3137 16.6126 77.0783 17.3758 77.0783 18.3137C77.0783 18.4268 77.0666 18.5375 77.0454 18.6445C77.0432 18.6529 77.042 18.6614 77.0402 18.6698C76.8756 19.4375 76.1911 20.0151 75.3737 20.0151H65.1539L68.5632 16.6126ZM49.769 16.6126H64.7514L61.3422 20.0151H46.3598L49.769 16.6126ZM30.6577 16.6126H45.9574L42.548 20.0151H27.2483L30.6577 16.6126ZM15.1859 18.3138C15.1859 17.3758 15.9507 16.6128 16.8905 16.6128H20.3703C20.3712 16.6128 20.3719 16.613 20.3728 16.613C20.3737 16.613 20.3748 16.6128 20.3757 16.6128H26.8461L23.4367 20.0152H16.8907C15.9505 20.0151 15.1859 19.2519 15.1859 18.3138ZM6.28345 54.0989C4.86373 54.0989 3.69234 53.021 3.54625 51.6424C3.87904 51.8753 4.23087 52.0859 4.60049 52.2716C5.60674 52.7773 6.68038 53.2279 7.82608 53.6284C7.38045 53.9287 6.84713 54.0989 6.28345 54.0989ZM5.81267 49.8693C5.06444 49.4932 4.42277 48.968 3.91857 48.3311C3.90168 48.3085 3.88497 48.2857 3.86646 48.264C3.48588 47.768 3.18652 47.2069 2.98455 46.5965C2.51071 45.1643 2.62409 43.6336 3.30367 42.2863C4.46788 39.9785 7.04425 38.7539 9.5678 39.3082C10.2037 39.4484 10.8524 39.5797 11.4957 39.6982C12.7172 39.9233 13.9901 40.111 15.2894 40.2625C16.2143 43.6112 17.6922 46.7943 19.6886 49.707C19.6286 49.7547 19.5684 49.8027 19.51 49.8487C18.2834 50.8141 16.9372 51.7154 15.2977 52.6636C11.5081 52.0842 8.40018 51.1695 5.81267 49.8693ZM18.9314 71.2208C18.1179 71.2208 17.3747 70.8581 16.8655 70.281C16.9778 70.2607 17.0901 70.2406 17.2024 70.2157C18.6787 69.887 20.1473 69.4249 21.6621 68.8075C21.4959 70.1652 20.3358 71.2208 18.9314 71.2208ZM25.0638 64.1303C21.9818 65.8939 19.2972 66.9935 16.6155 67.5905C13.5711 68.2687 10.5405 66.3474 9.86123 63.3085C9.29755 60.7867 10.514 58.2104 12.8196 57.0437C13.4658 56.7166 14.0309 56.4247 14.5472 56.1512C15.1428 55.836 15.7033 55.5288 16.2371 55.2261C16.2423 55.2231 16.2477 55.2202 16.2529 55.2172C18.186 54.1203 19.7502 53.0845 21.1787 51.96C21.2195 51.9279 21.2618 51.8942 21.3031 51.8614C23.5907 54.6668 26.3142 57.0428 29.3745 58.9108C29.0031 60.0525 28.6117 61.1494 28.1967 62.2098C27.1212 62.9122 26.0916 63.5448 25.0638 64.1303ZM39.7841 76.6329C40.7447 75.5475 41.5987 74.3786 42.3707 73.1537C42.4363 73.3902 42.4744 73.6361 42.4744 73.8886C42.4744 75.3825 41.273 76.599 39.7841 76.6329ZM49.5255 73.8886C49.5255 73.6355 49.5638 73.3893 49.6297 73.1523C50.4015 74.3767 51.2556 75.5457 52.2164 76.6329C50.7275 76.5994 49.5255 75.3827 49.5255 73.8886ZM62.8038 75.8242C61.6903 76.844 60.2501 77.3694 58.7353 77.3057C57.5479 77.255 56.4329 76.8422 55.5135 76.1285C55.5052 76.1222 55.4969 76.1154 55.4885 76.1093C55.2479 75.9203 55.02 75.7117 54.8091 75.4822L54.3149 74.9451C51.4556 71.7525 49.5645 67.6362 48.0111 63.5089C52.2749 63.2418 56.4231 62.1266 60.2245 60.2313C61.0619 62.74 61.9966 65.0488 63.0683 67.2438C63.3572 67.836 63.6598 68.4259 63.9673 68.9974C65.1893 71.2699 64.7108 74.0772 62.8038 75.8242ZM73.0685 71.2208C71.6639 71.2208 70.504 70.165 70.338 68.8073C71.8527 69.4249 73.3215 69.887 74.7977 70.2157C74.9098 70.2406 75.0221 70.2607 75.1346 70.2812C74.6252 70.8581 73.8818 71.2208 73.0685 71.2208ZM82.1387 63.3086C81.8096 64.7809 80.9259 66.0368 79.6501 66.8457C78.8608 67.3462 77.9799 67.6378 77.0736 67.7101C77.0497 67.711 77.0261 67.7128 77.0026 67.7149C76.467 67.7508 75.923 67.7108 75.3845 67.5906C72.7032 66.9939 70.0187 65.8945 66.9339 64.1292C65.9221 63.5527 64.87 62.9061 63.803 62.2101C63.3871 61.1477 62.9952 60.0484 62.623 58.9042C62.6965 58.8593 62.7715 58.8172 62.8446 58.7715C65.8384 56.9067 68.4866 54.5662 70.6963 51.8614C70.7378 51.8943 70.7802 51.9282 70.8211 51.9603C72.2497 53.0849 73.8133 54.1204 75.7461 55.2172C75.752 55.2207 75.7583 55.224 75.7644 55.2276C76.2979 55.5301 76.858 55.8369 77.4527 56.1518C77.9727 56.427 78.5379 56.7188 79.1804 57.0441C81.4858 58.2106 82.7025 60.7867 82.1387 63.3086ZM85.7164 54.0991C85.1528 54.0991 84.6193 53.9289 84.174 53.6284C85.3197 53.2279 86.3933 52.7771 87.3998 52.2716C87.7694 52.0859 88.1214 51.8753 88.4542 51.6424C88.3077 53.021 87.136 54.0991 85.7164 54.0991ZM89.0155 46.5963C88.8134 47.2071 88.5142 47.7682 88.1334 48.264C88.1151 48.2855 88.0987 48.3079 88.082 48.3303C87.5775 48.9677 86.9358 49.4931 86.1874 49.8693C83.5997 51.1697 80.4916 52.0844 76.7022 52.6636C75.0629 51.7154 73.7166 50.8141 72.4899 49.8487C72.431 49.8022 72.3702 49.7538 72.3097 49.7057C73.064 48.6042 73.7535 47.4554 74.3664 46.2608C74.7058 45.5996 74.4438 44.7893 73.7813 44.4507C73.119 44.1125 72.3068 44.3735 71.9677 45.0346C71.233 46.4659 70.3899 47.8153 69.4561 49.0806C69.4517 49.0856 69.4471 49.09 69.4429 49.095C69.4032 49.1429 69.3687 49.1932 69.3367 49.2447C66.9347 52.452 63.9279 55.0918 60.5185 57.0425C60.403 57.088 60.2973 57.1484 60.2023 57.2203C55.9481 59.584 51.087 60.8855 46 60.8855C44.5144 60.8855 43.0228 60.7731 41.5662 60.5514C40.8297 60.4395 40.1431 60.9439 40.0308 61.6783C39.9186 62.4126 40.4241 63.0987 41.1598 63.2106C42.0925 63.3524 43.0382 63.4521 43.9879 63.5113C42.4348 67.6374 40.5452 71.7514 37.6966 74.9322L37.1908 75.4824C36.9768 75.7149 36.7471 75.9244 36.5056 76.1129C36.5031 76.1147 36.5008 76.1166 36.4985 76.1184C34.3594 77.7827 31.2593 77.7138 29.1959 75.8243C27.2889 74.0776 26.8104 71.2701 28.0324 68.9978C28.339 68.4277 28.6414 67.8378 28.9314 67.244C30.0025 65.05 30.9371 62.7422 31.7743 60.2347C32.764 60.7271 33.7807 61.1731 34.8257 61.5639C34.9815 61.6221 35.1413 61.6498 35.2983 61.6498C35.844 61.6498 36.3576 61.3164 36.5604 60.7763C36.8215 60.0807 36.4683 59.3057 35.7713 59.0451C34.3722 58.522 33.0254 57.896 31.7376 57.1761C31.6938 57.1467 31.6472 57.1203 31.5994 57.0959C27.8815 54.99 24.6658 52.0891 22.1593 48.5445C20.0535 45.5665 18.5499 42.2672 17.6901 38.7867C17.68 38.732 17.6673 38.6782 17.6507 38.6257C17.1162 36.4071 16.8421 34.1159 16.8421 31.7876C16.8421 28.6775 17.3309 25.6271 18.2926 22.7049H73.7069C74.5637 25.3084 75.0438 28.0138 75.1383 30.7723C75.1385 30.7831 75.1389 30.7939 75.1394 30.8046C75.1502 31.1317 75.1574 31.4591 75.1574 31.7875C75.1574 34.6462 74.7432 37.47 73.9265 40.18C73.7123 40.8914 74.1165 41.6411 74.8289 41.8551C74.9585 41.894 75.0889 41.9125 75.2176 41.9125C75.7969 41.9125 76.3322 41.5366 76.5078 40.9545C76.5769 40.7248 76.6425 40.494 76.7065 40.2629C78.0065 40.1115 79.2809 39.9234 80.504 39.698C81.1466 39.5797 81.7953 39.4484 82.431 39.3082C84.9551 38.7535 87.5318 39.9783 88.6962 42.2862C89.376 43.6334 89.4894 45.1643 89.0155 46.5963ZM49.3214 29.509H42.9955C41.5986 29.509 40.4622 30.6432 40.4622 32.0371V35.0895C40.4622 38.172 42.9248 40.7671 45.9521 40.8745C46.0221 40.8771 46.0917 40.8783 46.1614 40.8783C47.6453 40.8783 49.042 40.3167 50.1138 39.2845C51.2365 38.2032 51.8548 36.7505 51.8548 35.1937V32.0371C51.8548 30.643 50.7185 29.509 49.3214 29.509ZM49.1597 35.1937C49.1597 36.0139 48.8337 36.7792 48.2422 37.3491C47.651 37.9184 46.8712 38.2158 46.0478 38.1867C44.454 38.1302 43.1574 36.7407 43.1574 35.0897V32.1987H49.1597V35.1937ZM61.1052 29.3105C60.3607 29.3105 59.7575 29.9127 59.7575 30.6554V33.2265C59.7575 33.9693 60.3607 34.5714 61.1052 34.5714C61.8496 34.5714 62.4529 33.9693 62.4529 33.2265V30.6554C62.4527 29.9127 61.8495 29.3105 61.1052 29.3105Z" fill="black"/>
</svg>
