<svg width="142" height="42" viewBox="0 0 142 42" fill="none" xmlns="http://www.w3.org/2000/svg">
<path d="M28.875 31H24.453V21.298C24.453 19.912 24.211 18.9 23.727 18.262C23.265 17.624 22.616 17.305 21.78 17.305C20.9 17.305 20.075 17.646 19.305 18.328C18.535 18.988 17.985 19.857 17.655 20.935V31H13.233V21.298C13.233 19.912 12.991 18.9 12.507 18.262C12.045 17.624 11.396 17.305 10.56 17.305C9.702 17.305 8.877 17.635 8.085 18.295C7.315 18.955 6.765 19.824 6.435 20.902V31H2.013V13.708H6.006V16.909C6.644 15.787 7.513 14.929 8.613 14.335C9.735 13.719 11.011 13.411 12.441 13.411C13.893 13.411 15.015 13.763 15.807 14.467C16.599 15.171 17.105 16.04 17.325 17.074C18.029 15.886 18.92 14.984 19.998 14.368C21.076 13.73 22.308 13.411 23.694 13.411C24.75 13.411 25.619 13.609 26.301 14.005C26.983 14.401 27.511 14.918 27.885 15.556C28.259 16.194 28.512 16.92 28.644 17.734C28.798 18.548 28.875 19.373 28.875 20.209V31ZM37.4439 31.33C36.6079 31.33 35.8269 31.198 35.1009 30.934C34.3749 30.648 33.7479 30.263 33.2199 29.779C32.6919 29.273 32.2739 28.69 31.9659 28.03C31.6799 27.37 31.5369 26.644 31.5369 25.852C31.5369 25.038 31.7129 24.29 32.0649 23.608C32.4389 22.904 32.9449 22.31 33.5829 21.826C34.2429 21.342 35.0239 20.968 35.9259 20.704C36.8279 20.418 37.8179 20.275 38.8959 20.275C39.6659 20.275 40.4139 20.341 41.1399 20.473C41.8879 20.605 42.5479 20.792 43.1199 21.034V20.044C43.1199 18.9 42.7899 18.02 42.1299 17.404C41.4919 16.788 40.5349 16.48 39.2589 16.48C38.3349 16.48 37.4329 16.645 36.5529 16.975C35.6729 17.305 34.7709 17.789 33.8469 18.427L32.4939 15.622C34.7159 14.148 37.1139 13.411 39.6879 13.411C42.1739 13.411 44.0989 14.027 45.4629 15.259C46.8489 16.469 47.5419 18.229 47.5419 20.539V25.918C47.5419 26.38 47.6189 26.71 47.7729 26.908C47.9489 27.106 48.2239 27.216 48.5979 27.238V31C47.8499 31.154 47.2009 31.231 46.6509 31.231C45.8149 31.231 45.1659 31.044 44.7039 30.67C44.2639 30.296 43.9889 29.801 43.8789 29.185L43.7799 28.228C43.0099 29.24 42.0749 30.01 40.9749 30.538C39.8749 31.066 38.6979 31.33 37.4439 31.33ZM38.6979 28.096C39.4459 28.096 40.1499 27.964 40.8099 27.7C41.4919 27.436 42.0199 27.084 42.3939 26.644C42.8779 26.27 43.1199 25.852 43.1199 25.39V23.41C42.5919 23.212 42.0199 23.058 41.4039 22.948C40.7879 22.816 40.1939 22.75 39.6219 22.75C38.4779 22.75 37.5429 23.014 36.8169 23.542C36.0909 24.048 35.7279 24.697 35.7279 25.489C35.7279 26.237 36.0139 26.864 36.5859 27.37C37.1579 27.854 37.8619 28.096 38.6979 28.096ZM67.7451 31H63.3231V21.298C63.3231 19.912 63.0811 18.9 62.5971 18.262C62.1131 17.624 61.4421 17.305 60.5841 17.305C60.1441 17.305 59.6931 17.393 59.2311 17.569C58.7691 17.745 58.3291 17.998 57.9111 18.328C57.5151 18.636 57.1521 19.01 56.8221 19.45C56.4921 19.89 56.2501 20.374 56.0961 20.902V31H51.6741V13.708H55.6671V16.909C56.3051 15.809 57.2291 14.951 58.4391 14.335C59.6491 13.719 61.0131 13.411 62.5311 13.411C63.6091 13.411 64.4891 13.609 65.1711 14.005C65.8531 14.401 66.3811 14.918 66.7551 15.556C67.1291 16.194 67.3821 16.92 67.5141 17.734C67.6681 18.548 67.7451 19.373 67.7451 20.209V31ZM76.3091 31.33C75.4731 31.33 74.6921 31.198 73.9661 30.934C73.2401 30.648 72.6131 30.263 72.0851 29.779C71.5571 29.273 71.1391 28.69 70.8311 28.03C70.5451 27.37 70.4021 26.644 70.4021 25.852C70.4021 25.038 70.5781 24.29 70.9301 23.608C71.3041 22.904 71.8101 22.31 72.4481 21.826C73.1081 21.342 73.8891 20.968 74.7911 20.704C75.6931 20.418 76.6831 20.275 77.7611 20.275C78.5311 20.275 79.2791 20.341 80.0051 20.473C80.7531 20.605 81.4131 20.792 81.9851 21.034V20.044C81.9851 18.9 81.6551 18.02 80.9951 17.404C80.3571 16.788 79.4001 16.48 78.1241 16.48C77.2001 16.48 76.2981 16.645 75.4181 16.975C74.5381 17.305 73.6361 17.789 72.7121 18.427L71.3591 15.622C73.5811 14.148 75.9791 13.411 78.5531 13.411C81.0391 13.411 82.9641 14.027 84.3281 15.259C85.7141 16.469 86.4072 18.229 86.4072 20.539V25.918C86.4072 26.38 86.4841 26.71 86.6381 26.908C86.8141 27.106 87.0891 27.216 87.4632 27.238V31C86.7151 31.154 86.0661 31.231 85.5161 31.231C84.6801 31.231 84.0311 31.044 83.5691 30.67C83.1291 30.296 82.8541 29.801 82.7441 29.185L82.6451 28.228C81.8751 29.24 80.9401 30.01 79.8401 30.538C78.7401 31.066 77.5631 31.33 76.3091 31.33ZM77.5631 28.096C78.3111 28.096 79.0151 27.964 79.6751 27.7C80.3571 27.436 80.8851 27.084 81.2591 26.644C81.7431 26.27 81.9851 25.852 81.9851 25.39V23.41C81.4571 23.212 80.8851 23.058 80.2691 22.948C79.6531 22.816 79.0591 22.75 78.4871 22.75C77.3431 22.75 76.4081 23.014 75.6821 23.542C74.9561 24.048 74.5931 24.697 74.5931 25.489C74.5931 26.237 74.8791 26.864 75.4511 27.37C76.0231 27.854 76.7271 28.096 77.5631 28.096ZM97.3044 31.099C96.1384 31.099 95.0824 30.868 94.1364 30.406C93.1904 29.944 92.3654 29.317 91.6614 28.525C90.9794 27.711 90.4514 26.776 90.0774 25.72C89.7034 24.664 89.5164 23.542 89.5164 22.354C89.5164 21.1 89.7144 19.934 90.1104 18.856C90.5064 17.778 91.0564 16.832 91.7604 16.018C92.4644 15.204 93.3114 14.566 94.3014 14.104C95.2914 13.642 96.3804 13.411 97.5684 13.411C98.9104 13.411 100.087 13.719 101.099 14.335C102.111 14.929 102.947 15.732 103.607 16.744V13.708H107.468V30.175C107.468 31.451 107.226 32.595 106.742 33.607C106.258 34.619 105.587 35.477 104.729 36.181C103.893 36.885 102.881 37.424 101.693 37.798C100.527 38.172 99.2514 38.359 97.8654 38.359C95.9734 38.359 94.3784 38.04 93.0804 37.402C91.8044 36.786 90.7044 35.906 89.7804 34.762L92.1894 32.419C92.8494 33.233 93.6744 33.871 94.6644 34.333C95.6764 34.795 96.7434 35.026 97.8654 35.026C98.5474 35.026 99.1964 34.927 99.8124 34.729C100.45 34.553 101.011 34.267 101.495 33.871C101.979 33.475 102.353 32.969 102.617 32.353C102.903 31.737 103.046 31.011 103.046 30.175V27.997C102.474 28.987 101.671 29.757 100.637 30.307C99.6034 30.835 98.4924 31.099 97.3044 31.099ZM98.7894 27.568C99.2734 27.568 99.7354 27.491 100.175 27.337C100.615 27.183 101.022 26.974 101.396 26.71C101.77 26.446 102.1 26.138 102.386 25.786C102.672 25.434 102.892 25.06 103.046 24.664V20.539C102.65 19.527 102.023 18.713 101.165 18.097C100.329 17.481 99.4494 17.173 98.5254 17.173C97.8434 17.173 97.2274 17.327 96.6774 17.635C96.1274 17.921 95.6544 18.317 95.2584 18.823C94.8624 19.307 94.5544 19.868 94.3344 20.506C94.1364 21.144 94.0374 21.804 94.0374 22.486C94.0374 23.19 94.1584 23.85 94.4004 24.466C94.6424 25.082 94.9724 25.621 95.3904 26.083C95.8304 26.545 96.3364 26.908 96.9084 27.172C97.4804 27.436 98.1074 27.568 98.7894 27.568ZM119.473 31.33C118.087 31.33 116.833 31.099 115.711 30.637C114.589 30.153 113.632 29.504 112.84 28.69C112.048 27.876 111.432 26.93 110.992 25.852C110.574 24.774 110.365 23.641 110.365 22.453C110.365 21.221 110.574 20.066 110.992 18.988C111.41 17.888 112.015 16.931 112.807 16.117C113.599 15.281 114.556 14.621 115.678 14.137C116.822 13.653 118.098 13.411 119.506 13.411C120.914 13.411 122.168 13.653 123.268 14.137C124.39 14.621 125.336 15.27 126.106 16.084C126.898 16.898 127.492 17.844 127.888 18.922C128.306 20 128.515 21.122 128.515 22.288C128.515 22.574 128.504 22.849 128.482 23.113C128.482 23.377 128.46 23.597 128.416 23.773H115.051C115.117 24.455 115.282 25.06 115.546 25.588C115.81 26.116 116.151 26.567 116.569 26.941C116.987 27.315 117.46 27.601 117.988 27.799C118.516 27.997 119.066 28.096 119.638 28.096C120.518 28.096 121.343 27.887 122.113 27.469C122.905 27.029 123.444 26.457 123.73 25.753L127.525 26.809C126.887 28.129 125.864 29.218 124.456 30.076C123.07 30.912 121.409 31.33 119.473 31.33ZM123.961 20.902C123.851 19.604 123.367 18.57 122.509 17.8C121.673 17.008 120.65 16.612 119.44 16.612C118.846 16.612 118.285 16.722 117.757 16.942C117.251 17.14 116.8 17.426 116.404 17.8C116.008 18.174 115.678 18.625 115.414 19.153C115.172 19.681 115.029 20.264 114.985 20.902H123.961ZM141.505 17.536C140.163 17.558 138.964 17.822 137.908 18.328C136.852 18.812 136.093 19.549 135.631 20.539V31H131.209V13.708H135.268V17.404C135.576 16.81 135.939 16.282 136.357 15.82C136.775 15.336 137.226 14.918 137.71 14.566C138.194 14.214 138.678 13.95 139.162 13.774C139.668 13.576 140.152 13.477 140.614 13.477C140.856 13.477 141.032 13.477 141.142 13.477C141.274 13.477 141.395 13.488 141.505 13.51V17.536Z" transform="translate(0 3)" fill="#8151B0"/>
<path d="M0.192451 12C-0.492842 8.43734 0.274686 1.06537 8.82714 0.0787859C17.3796 -0.907797 6.6342 7.61519 0.192451 12Z" transform="translate(40)" fill="#5AB751"/>
</svg>
